<svg class="truth-logo" xmlns="http://www.w3.org/2000/svg" viewBox="0 0 720.12 165.98"><title>truth-logo</title><path d="M607.92 163c-24.18 0-47.09-5.69-66.27-16.45l-1.18-.66-41 14.45 19.32-31.13-1.54-1.68c-12.11-13.2-18.51-28.59-18.51-44.52 0-44.11 49-80 109.2-80s109.2 35.88 109.2 80-49 80-109.2 80" fill="#fff"/><path d="M607.92 6c58.56 0 106.2 34.54 106.2 77s-47.64 77-106.2 77c-23.66 0-46.07-5.56-64.8-16.07l-2.37-1.33-2.56.9-31.7 11.16 13.63-22 2.4-3.87-3.08-3.35c-11.59-12.59-17.72-27.29-17.72-42.44 0-42.45 47.64-77 106.2-77m0-6c-62 0-112.2 37.16-112.2 83 0 17.25 7.12 33.27 19.3 46.55L492.4 166l47.78-16.83C559 159.71 582.47 166 607.92 166c62 0 112.2-37.16 112.2-83S669.89 0 607.92 0M0 66.2h8.16v37.13H0zm15.34 0h8.11l15.5 24.91h.1V66.2h7.65v37.13h-8.17L23.09 78.47h-.11v24.86h-7.64V66.2zM73.89 91c0 4.94 3.85 6.86 8.22 6.86 2.86 0 7.23-.83 7.23-4.63 0-4-5.56-4.68-11-6.14s-11.1-3.57-11.1-10.54c0-7.59 7.18-11.23 13.88-11.23 7.75 0 14.87 3.38 14.87 12h-7.9c-.26-4.47-3.43-5.62-7.33-5.62-2.6 0-5.62 1.09-5.62 4.21 0 2.86 1.77 3.22 11.08 5.62 2.7.68 11 2.39 11 10.82 0 6.81-5.36 11.91-15.44 11.91-8.22 0-15.91-4.06-15.81-13.21zm28.19-24.8h27.76v6.86h-19.6v7.96h17.99v6.35h-17.99v9.1h20.02v6.86h-28.18V66.2zm43.83 0h8.37l13.88 37.13h-8.48l-2.81-8.27H143l-2.91 8.27h-8.27zm-.78 22.8h9.62l-4.68-13.62H150zm26.26-22.8h20c6.66 0 10.87 4.63 10.87 10.24 0 4.37-1.77 7.64-5.88 9.31v.1c4 1 5.15 4.94 5.41 8.68.16 2.34.1 6.71 1.56 8.79h-8.16c-1-2.34-.88-5.93-1.3-8.89-.57-3.9-2.08-5.62-6.19-5.62h-8.16v14.51h-8.16zm8.17 16.8h8.94c3.64 0 5.62-1.56 5.62-5.3 0-3.59-2-5.15-5.62-5.15h-8.94zm54.13-4.32c-.52-3.69-4.06-6.5-8.11-6.5-7.33 0-10.09 6.24-10.09 12.74 0 6.19 2.76 12.43 10.09 12.43 5 0 7.8-3.43 8.42-8.32h7.9c-.83 9.26-7.23 15.18-16.33 15.18-11.49 0-18.25-8.58-18.25-19.29 0-11 6.76-19.61 18.25-19.61 8.16 0 15 4.78 16 13.36zm13.78-12.48h8.16v14.25h15.03V66.2h8.16v37.13h-8.16V87.31h-15.03v16.02h-8.16V66.2zm69.62-.88c11.49 0 18.25 8.58 18.25 19.61 0 10.71-6.76 19.29-18.25 19.29s-18.25-8.58-18.25-19.29c0-11 6.76-19.61 18.25-19.61m0 32c7.33 0 10.09-6.24 10.09-12.43 0-6.5-2.76-12.74-10.09-12.74S307 78.42 307 84.92c0 6.19 2.76 12.43 10.09 12.43m23.82-31.15h26.1v6.86h-17.94v8.58h15.55v6.35h-15.55v15.34h-8.16V66.2zm53.51 6.86h-11.13V66.2h30.42v6.86h-11.13v30.27h-8.16V73.06zm23.55-6.86h8.17v14.25h15.03V66.2h8.16v37.13h-8.16V87.31h-15.03v16.02h-8.17V66.2zm38.53 0h27.77v6.86h-19.6v7.96h17.99v6.35h-17.99v9.1h20.02v6.86H456.5V66.2z" fill="#010101"/><path fill="#010101" d="M529.61 73.06h-11.13V66.2h30.42v6.86h-11.13v30.27h-8.16V73.06zm23.55-6.86h20c6.66 0 10.87 4.63 10.87 10.24 0 4.37-1.77 7.64-5.88 9.31v.1c4 1 5.15 4.94 5.41 8.68.16 2.34.1 6.71 1.56 8.79H577c-1-2.34-.88-5.93-1.3-8.89-.57-3.9-2.08-5.62-6.19-5.62h-8.16v14.51h-8.16zm8.17 16.8h8.94c3.64 0 5.62-1.56 5.62-5.3 0-3.59-2-5.15-5.62-5.15h-8.94zm60.89 6.29c0 10-5.93 14.92-15.86 14.92s-15.81-4.84-15.81-14.92V66.2h8.16v23.09c0 4.06 1 8.06 7.65 8.06 5.82 0 7.7-2.55 7.7-8.06V66.2h8.16zm15.23-16.23h-11.12V66.2h30.42v6.86h-11.13v30.27h-8.17V73.06zm23.56-6.86h8.16v14.25h15.03V66.2h8.17v37.13h-8.17V87.31h-15.03v16.02h-8.16V66.2z"/></svg>