<svg class="social-icon" xmlns="http://www.w3.org/2000/svg" viewBox="0 0 61.56 50"><title>icon-twitter</title><path d="M55.23,12.46c0,.55,0,1.09,0,1.64,0,16.68-12.7,35.9-35.9,35.9A35.65,35.65,0,0,1,0,44.34a26.14,26.14,0,0,0,3,.16A25.26,25.26,0,0,0,18.71,39.1a12.64,12.64,0,0,1-11.8-8.75,15.59,15.59,0,0,0,2.38.2,13.35,13.35,0,0,0,3.32-.43A12.62,12.62,0,0,1,2.5,17.73v-.16a12.69,12.69,0,0,0,5.7,1.6A12.63,12.63,0,0,1,4.3,2.3a35.86,35.86,0,0,0,26,13.2A14.35,14.35,0,0,1,30,12.62,12.63,12.63,0,0,1,51.83,4a24.82,24.82,0,0,0,8-3,12.58,12.58,0,0,1-5.55,7,25.28,25.28,0,0,0,7.26-2A27.1,27.1,0,0,1,55.23,12.46Z"/></svg>
