<svg class="social-icon" xmlns="http://www.w3.org/2000/svg" viewBox="0 0 50.02 50"><title>icon-instagram</title><path d="M0,33.25V16.77a3.32,3.32,0,0,0,.08-.47A26.71,26.71,0,0,1,.7,10.55,12.77,12.77,0,0,1,8.3,1.44,19.18,19.18,0,0,1,15.22.06c.52,0,1,0,1.56-.06H33.25c.26,0,3.68.22,5.25.51,5.72,1.07,9.38,4.42,10.84,10.09A31.09,31.09,0,0,1,50,18.09q.07,7.36,0,14.73a34,34,0,0,1-.46,5.72A12.78,12.78,0,0,1,39.42,49.33,30.6,30.6,0,0,1,32,50c-5.21,0-10.41,0-15.62-.05a24.36,24.36,0,0,1-5.85-.62,12.76,12.76,0,0,1-9-7.45A19,19,0,0,1,.11,34.81C.09,34.29,0,33.77,0,33.25ZM45.55,25h-.08c0-2.08,0-4.17,0-6.25s-.12-3.93-.32-5.89A8.89,8.89,0,0,0,43,7.8a9.16,9.16,0,0,0-6.64-3c-3-.18-5.91-.22-8.87-.26s-5.82,0-8.73,0c-2,0-3.93.12-5.89.32A8.89,8.89,0,0,0,7.8,7a9.16,9.16,0,0,0-3,6.64c-.18,3-.22,5.91-.26,8.87s0,5.82,0,8.73c0,2,.12,3.93.32,5.89A8.89,8.89,0,0,0,7,42.22a9.16,9.16,0,0,0,6.64,3c3,.18,5.91.22,8.87.26s5.82,0,8.73,0A50.27,50.27,0,0,0,37.73,45a8.15,8.15,0,0,0,7.08-6.28,16.48,16.48,0,0,0,.53-3.67C45.46,31.72,45.49,28.37,45.55,25Z"/><path d="M37.86,25A12.85,12.85,0,1,1,25,12.16,12.84,12.84,0,0,1,37.86,25ZM16.69,25A8.32,8.32,0,1,0,25,16.69,8.34,8.34,0,0,0,16.69,25Z"/><path d="M41.37,11.69a3,3,0,1,1-3-3A3,3,0,0,1,41.37,11.69Z"/></svg>
