<svg class="truth-logo" xmlns="http://www.w3.org/2000/svg" viewBox="0 0 720.12 165.98"><title>truth-logo</title><path d="M607.92,163c-24.18,0-47.09-5.69-66.27-16.45l-1.18-.66-41,14.45,19.32-31.13-1.54-1.68c-12.11-13.2-18.51-28.59-18.51-44.52,0-44.11,49-80,109.2-80s109.2,35.88,109.2,80-49,80-109.2,80" style="fill:#fff"/><path d="M607.92,6c58.56,0,106.2,34.54,106.2,77s-47.64,77-106.2,77c-23.66,0-46.07-5.56-64.8-16.07l-2.37-1.33-2.56.9-31.7,11.16,13.63-22,2.4-3.87-3.08-3.35C507.85,112.85,501.72,98.15,501.72,83c0-42.45,47.64-77,106.2-77m0-6c-62,0-112.2,37.16-112.2,83,0,17.25,7.12,33.27,19.3,46.55L492.4,166l47.78-16.83C559,159.71,582.47,166,607.92,166c62,0,112.2-37.16,112.2-83S669.89,0,607.92,0" style="fill:#010101"/><rect y="66.2" width="8.16" height="37.13" style="fill:#010101"/><polygon points="15.34 66.2 23.45 66.2 38.95 91.11 39.05 91.11 39.05 66.2 46.7 66.2 46.7 103.33 38.53 103.33 23.09 78.47 22.98 78.47 22.98 103.33 15.34 103.33 15.34 66.2" style="fill:#010101"/><path d="M73.89,91c0,4.94,3.85,6.86,8.22,6.86,2.86,0,7.23-.83,7.23-4.63,0-4-5.56-4.68-11-6.14S67.24,83.52,67.24,76.55c0-7.59,7.18-11.23,13.88-11.23,7.75,0,14.87,3.38,14.87,12h-7.9c-.26-4.47-3.43-5.62-7.33-5.62-2.6,0-5.62,1.09-5.62,4.21,0,2.86,1.77,3.22,11.08,5.62,2.7.68,11,2.39,11,10.82,0,6.81-5.36,11.91-15.44,11.91-8.22,0-15.91-4.06-15.81-13.21Z" style="fill:#010101"/><polygon points="102.08 66.2 129.84 66.2 129.84 73.06 110.24 73.06 110.24 81.02 128.23 81.02 128.23 87.37 110.24 87.37 110.24 96.47 130.26 96.47 130.26 103.33 102.08 103.33 102.08 66.2" style="fill:#010101"/><path d="M145.91,66.2h8.37l13.88,37.13h-8.48l-2.81-8.27H143l-2.91,8.27h-8.27ZM145.13,89h9.62l-4.68-13.62H150Z" style="fill:#010101"/><path d="M171.39,66.2h20c6.66,0,10.87,4.63,10.87,10.24,0,4.37-1.77,7.64-5.88,9.31v.1c4,1,5.15,4.94,5.41,8.68.16,2.34.1,6.71,1.56,8.79h-8.16c-1-2.34-.88-5.93-1.3-8.89-.57-3.9-2.08-5.62-6.19-5.62h-8.16v14.51h-8.16ZM179.56,83h8.94c3.64,0,5.62-1.56,5.62-5.3,0-3.59-2-5.15-5.62-5.15h-8.94Z" style="fill:#010101"/><path d="M233.69,78.68c-.52-3.69-4.06-6.5-8.11-6.5-7.33,0-10.09,6.24-10.09,12.74,0,6.19,2.76,12.43,10.09,12.43,5,0,7.8-3.43,8.42-8.32h7.9c-.83,9.26-7.23,15.18-16.33,15.18-11.49,0-18.25-8.58-18.25-19.29,0-11,6.76-19.61,18.25-19.61,8.16,0,15,4.78,16,13.36Z" style="fill:#010101"/><polygon points="247.47 66.2 255.63 66.2 255.63 80.45 270.66 80.45 270.66 66.2 278.82 66.2 278.82 103.33 270.66 103.33 270.66 87.31 255.63 87.31 255.63 103.33 247.47 103.33 247.47 66.2" style="fill:#010101"/><path d="M317.09,65.32c11.49,0,18.25,8.58,18.25,19.61,0,10.71-6.76,19.29-18.25,19.29s-18.25-8.58-18.25-19.29c0-11,6.76-19.61,18.25-19.61m0,32c7.33,0,10.09-6.24,10.09-12.43,0-6.5-2.76-12.74-10.09-12.74S307,78.42,307,84.92c0,6.19,2.76,12.43,10.09,12.43" style="fill:#010101"/><polygon points="340.91 66.2 367.01 66.2 367.01 73.06 349.07 73.06 349.07 81.64 364.62 81.64 364.62 87.99 349.07 87.99 349.07 103.33 340.91 103.33 340.91 66.2" style="fill:#010101"/><polygon points="394.42 73.06 383.29 73.06 383.29 66.2 413.71 66.2 413.71 73.06 402.58 73.06 402.58 103.33 394.42 103.33 394.42 73.06" style="fill:#010101"/><polygon points="417.97 66.2 426.14 66.2 426.14 80.45 441.17 80.45 441.17 66.2 449.33 66.2 449.33 103.33 441.17 103.33 441.17 87.31 426.14 87.31 426.14 103.33 417.97 103.33 417.97 66.2" style="fill:#010101"/><polygon points="456.5 66.2 484.27 66.2 484.27 73.06 464.67 73.06 464.67 81.02 482.66 81.02 482.66 87.37 464.67 87.37 464.67 96.47 484.69 96.47 484.69 103.33 456.5 103.33 456.5 66.2" style="fill:#010101"/><polygon points="529.61 73.06 518.48 73.06 518.48 66.2 548.9 66.2 548.9 73.06 537.77 73.06 537.77 103.33 529.61 103.33 529.61 73.06" style="fill:#010101"/><path d="M553.16,66.2h20c6.66,0,10.87,4.63,10.87,10.24,0,4.37-1.77,7.64-5.88,9.31v.1c4,1,5.15,4.94,5.41,8.68.16,2.34.1,6.71,1.56,8.79H577c-1-2.34-.88-5.93-1.3-8.89-.57-3.9-2.08-5.62-6.19-5.62h-8.16v14.51h-8.16ZM561.33,83h8.94c3.64,0,5.62-1.56,5.62-5.3,0-3.59-2-5.15-5.62-5.15h-8.94Z" style="fill:#010101"/><path d="M622.22,89.29c0,10-5.93,14.92-15.86,14.92s-15.81-4.84-15.81-14.92V66.2h8.16V89.29c0,4.06,1,8.06,7.65,8.06,5.82,0,7.7-2.55,7.7-8.06V66.2h8.16Z" style="fill:#010101"/><polygon points="637.45 73.06 626.33 73.06 626.33 66.2 656.75 66.2 656.75 73.06 645.62 73.06 645.62 103.33 637.45 103.33 637.45 73.06" style="fill:#010101"/><polygon points="661.01 66.2 669.17 66.2 669.17 80.45 684.2 80.45 684.2 66.2 692.37 66.2 692.37 103.33 684.2 103.33 684.2 87.31 669.17 87.31 669.17 103.33 661.01 103.33 661.01 66.2" style="fill:#010101"/></svg>
